<svg xmlns="http://www.w3.org/2000/svg" width="196.563" height="40" viewBox="0 0 196.563 40"><g fill="#fff"><g data-name="Group 438"><path data-name="Path 572" d="M11.422 26.225c0-1.695 1.265-2.825 3.74-2.825a8.227 8.227 0 011.507.135 22.805 22.805 0 00.323 2.341h1.776v-4.175a18.624 18.624 0 00-3.5-.349c-4.063 0-6.43 2.153-6.43 5.139 0 5.838 8.286 4.17 8.286 8.259 0 2.233-1.8 3.121-4.009 3.121a8.585 8.585 0 01-1.883-.242 37.38 37.38 0 00-.349-2.395H9.108v4.3a15.586 15.586 0 003.874.458c4.17 0 6.727-2.341 6.727-5.6 0-5.7-8.287-4.251-8.287-8.179"/><path data-name="Path 573" d="M28.071 30.341l6.672-6.969a13.688 13.688 0 001.883-.322v-1.453h-6.752v1.453a10.728 10.728 0 001.856.322l-6.484 6.942v-6.915a13.232 13.232 0 002.018-.349v-1.453h-6.807v1.426a12.5 12.5 0 002.341.377v14.55a12.5 12.5 0 00-2.341.377v1.426h6.807v-1.448a13.134 13.134 0 00-2.018-.35v-7.318l6.591 7.372a11.839 11.839 0 00-1.695.3v1.452h6.888v-1.456a13.709 13.709 0 00-1.883-.323z"/><path data-name="Path 574" d="M40.226 26.225c0-1.695 1.265-2.825 3.74-2.825a8.227 8.227 0 011.507.135 22.808 22.808 0 00.323 2.341h1.775v-4.175a18.608 18.608 0 00-3.5-.349c-4.063 0-6.43 2.153-6.43 5.139 0 5.838 8.286 4.17 8.286 8.259 0 2.233-1.8 3.121-4.009 3.121a8.585 8.585 0 01-1.883-.242 37.38 37.38 0 00-.349-2.395h-1.774v4.3a15.586 15.586 0 003.874.458c4.17 0 6.727-2.341 6.727-5.6 0-5.7-8.287-4.251-8.287-8.179"/><path data-name="Path 575" d="M50.438 28.919v.905h25.359l-.422-.905z"/><path data-name="Path 576" d="M71.34 20.261l-.4-.863-20.5 2.281.006.9z"/><path data-name="Path 577" d="M50.427 15.301l16.864-3.731-.385-.833-16.473 3.674z"/><path data-name="Path 578" d="M97.791 34.757a5.015 5.015 0 00-9.706-1.775 11.4 11.4 0 003.508.153l1.337 6.621-1.332-6.6a11.39 11.39 0 01-3.508-.152 7.342 7.342 0 01-5.067-3.581L69.309 0 0 15.322v24.434h6.78V20.662l58.7-12.975 1.422 3.054 2.267 4.864-.32-.687-18.405 3.126-.008.9 18.809-3.178 3.9 8.363-22.7 1.2v.9l23.109-1.222-.394-.846 2.638 5.661 1.523 3.27h-26.93v6.678l42 .007h.536v-.012a5.015 5.015 0 004.863-5.01"/></g><g data-name="Group 439"><path data-name="Path 579" d="M109.552 1.8a4.756 4.756 0 00-1.01-.5 5.158 5.158 0 00-1.332-.2c-1.1 0-1.844.541-1.844 1.361 0 .717.424 1.083 2.385 2.121a8.342 8.342 0 011.522.981 2.3 2.3 0 01.742 1.754c0 1.654-1.229 2.692-3.175 2.692a4.868 4.868 0 01-1.781-.323 6.11 6.11 0 01-1.244-.715l.615-.951a5.113 5.113 0 001.112.629 3.893 3.893 0 001.39.249c1.141 0 1.829-.542 1.829-1.463a1.372 1.372 0 00-.146-.689 2.133 2.133 0 00-.82-.79c-.16-.088-.7-.367-1.609-.863-1.449-.776-2.064-1.536-2.064-2.532 0-1.537 1.274-2.561 3.191-2.561a5.388 5.388 0 011.624.234 5.23 5.23 0 011.171.571z"/><path data-name="Path 580" d="M117.015 9.497a4.283 4.283 0 01-1.99.527 4.392 4.392 0 01-2.006-.527c-.732-.439-1.01-1.142-1.01-2.532V2.824h1.1v4.333a1.714 1.714 0 001.917 1.931 1.714 1.714 0 001.916-1.931V2.824h1.1v4.141c0 1.39-.278 2.093-1.024 2.532"/><path data-name="Path 581" d="M123.893 9.951a3.637 3.637 0 110-7.258 3.637 3.637 0 110 7.258m0-6.321a2.7 2.7 0 102.693 2.693 2.644 2.644 0 00-2.693-2.693"/><path data-name="Path 582" d="M136.595 9.819V4.244a4.162 4.162 0 01-.278.82l-2.151 4.756h-.878l-1.932-4.463a2.777 2.777 0 01-.278-.922V9.82h-1.112v-7h1.42l2.268 5.166a1.826 1.826 0 01.132.556 3.973 3.973 0 01.146-.556l2.356-5.166h1.4v7z"/><path data-name="Path 583" d="M145.127 9.82l-.8-1.947h-3l-.79 1.946h-1.118l2.854-7.171h1.1l2.854 7.172zm-2.3-5.986l-1.2 3.132h2.386z"/><path data-name="Path 584" d="M147.951 9.819v-7h1.112v6.078h3.307v.922z"/><path data-name="Path 585" d="M158.327 9.82l-.8-1.946h-3l-.79 1.946h-1.118l2.854-7.171h1.1l2.854 7.171zm-2.3-5.985l-1.2 3.132h2.388z"/><path data-name="Rectangle 1021" d="M161.15 2.824h1.112v6.995h-1.112z"/><path data-name="Path 586" d="M169.097 4.214a2.851 2.851 0 00-.878-.424 3.522 3.522 0 00-.98-.147c-.892 0-1.434.323-1.434.863a.667.667 0 00.088.365c.2.308.439.44 1.8 1.1 1.316.643 1.742 1.127 1.742 1.99 0 1.244-.964 1.99-2.546 1.99a4.342 4.342 0 01-1.434-.22 5.623 5.623 0 01-.994-.527l.5-.951a4.094 4.094 0 00.907.556 3.077 3.077 0 001.156.235c.82 0 1.3-.352 1.3-.937 0-.468-.234-.775-.79-1.039l-1.273-.615c-1.068-.512-1.551-1.1-1.551-1.844 0-1.156 1-1.9 2.546-1.9a4.665 4.665 0 011.3.176 3.915 3.915 0 01.936.41z"/><path data-name="Path 587" d="M171.746 9.819v-7h4.332v.922h-3.22v2.02h2.663v.922h-2.663v2.21h3.307v.922z"/><path data-name="Path 588" d="M183.715 9.907l-3.951-5.05a1.664 1.664 0 01-.366-.644v5.6h-1.024v-7h1.112l3.951 4.976a1.348 1.348 0 01.277.643V2.824h1.01v7.083z"/><path data-name="Path 589" d="M104.678 14.795h1.2v9.655h-1.2zm5.151 9.655l-3.863-4.87 3.773-4.785h1.378l-3.778 4.698 3.968 4.957z"/><path data-name="Rectangle 1022" d="M112.786 17.458h1.112v6.995h-1.112z"/><path data-name="Path 590" d="M120.923 24.453l-1.844-2.853h-1.01v2.853h-1.112v-7h2.356c1.683 0 2.6.7 2.6 1.99a1.976 1.976 0 01-1.639 2.063l1.932 2.941zm-.629-5.883c-.234-.176-.322-.19-1.127-.19h-1.1v2.3h1.1c.717 0 .863-.029 1.171-.292a1.1 1.1 0 00.38-.893 1.077 1.077 0 00-.424-.922"/><path data-name="Path 591" d="M124.259 25.991a6.57 6.57 0 01-.893 1.039l-.776-.585a7.635 7.635 0 00.82-1.01 3.373 3.373 0 00.41-1.9v-6.077h1.112v7.185a5.713 5.713 0 01-.673 1.348"/><path data-name="Path 592" d="M132.351 24.454l-.8-1.946h-3l-.79 1.946h-1.117l2.854-7.171h1.1l2.854 7.171zm-2.3-5.985l-1.2 3.132h2.385z"/><path data-name="Path 593" d="M135.173 24.453v-7h1.112v6.078h3.307v.922z"/><path data-name="Path 594" d="M141.19 24.453v-7h1.112v6.078h3.307v.922z"/><path data-name="Rectangle 1023" d="M147.204 17.458h1.112v6.995h-1.112z"/><path data-name="Path 595" d="M155.15 18.848a2.844 2.844 0 00-.878-.424 3.51 3.51 0 00-.98-.147c-.893 0-1.435.323-1.435.863a.673.673 0 00.089.365c.2.308.438.44 1.8 1.1 1.318.643 1.741 1.127 1.741 1.99 0 1.244-.965 1.99-2.546 1.99a4.346 4.346 0 01-1.439-.22 5.673 5.673 0 01-.994-.527l.5-.951a4.061 4.061 0 00.906.556 3.079 3.079 0 001.157.235c.819 0 1.3-.352 1.3-.937 0-.468-.234-.775-.79-1.039l-1.273-.615c-1.068-.512-1.551-1.1-1.551-1.844 0-1.156 1-1.9 2.546-1.9a4.673 4.673 0 011.3.176 3.955 3.955 0 01.937.41z"/><path data-name="Path 596" d="M162.569 24.131a4.28 4.28 0 01-1.991.527 4.394 4.394 0 01-2-.527c-.735-.44-1.013-1.14-1.013-2.532v-4.141h1.1v4.333a1.917 1.917 0 103.834 0v-4.333h1.1v4.141c0 1.39-.279 2.093-1.025 2.532"/><path data-name="Path 597" d="M171.19 24.131a4.284 4.284 0 01-1.99.527 4.394 4.394 0 01-2-.527c-.737-.44-1.016-1.14-1.016-2.532v-4.141h1.1v4.333a1.917 1.917 0 103.834 0v-4.333h1.1v4.141c0 1.39-.278 2.093-1.024 2.532"/><path data-name="Path 598" d="M180.496 23.491a3.71 3.71 0 01-2.884.966h-2.576v-7h2.576a3.789 3.789 0 012.9.967 3.983 3.983 0 01.994 2.532 3.893 3.893 0 01-1.009 2.532m-1.1-4.625a2.575 2.575 0 00-1.873-.482h-1.375v5.15h1.283a2.482 2.482 0 002.9-2.59 2.724 2.724 0 00-.937-2.078"/><path data-name="Path 599" d="M183.584 24.453v-7h4.331v.922h-3.219v2.019h2.663v.922h-2.663v2.21h3.307v.922z"/><path data-name="Path 600" d="M195.554 24.541l-3.951-5.05a1.633 1.633 0 01-.365-.644v5.6h-1.025v-7h1.112l3.951 4.976a1.349 1.349 0 01.278.643v-5.608h1.009v7.083z"/><path data-name="Path 601" d="M109.552 31.068a4.756 4.756 0 00-1.01-.5 5.158 5.158 0 00-1.327-.203c-1.1 0-1.844.542-1.844 1.361 0 .718.424 1.084 2.385 2.122a8.342 8.342 0 011.522.981 2.3 2.3 0 01.746 1.756c0 1.654-1.229 2.692-3.175 2.692a4.868 4.868 0 01-1.785-.321 6.11 6.11 0 01-1.249-.717l.615-.951a5.113 5.113 0 001.112.629 3.893 3.893 0 001.39.249c1.141 0 1.829-.542 1.829-1.463a1.372 1.372 0 00-.146-.688 2.133 2.133 0 00-.82-.79c-.16-.088-.7-.367-1.609-.863-1.449-.777-2.064-1.537-2.064-2.533 0-1.537 1.274-2.561 3.191-2.561a5.388 5.388 0 011.624.234 5.254 5.254 0 011.171.57z"/><path data-name="Path 602" d="M112.248 39.087v-7h4.332v.922h-3.224v2.019h2.663v.922h-2.663v2.21h3.307v.922z"/><path data-name="Path 603" d="M123.644 38.765a4.284 4.284 0 01-1.99.527 4.392 4.392 0 01-2-.527c-.732-.439-1.01-1.142-1.01-2.532v-4.141h1.1v4.333a1.715 1.715 0 001.917 1.931 1.715 1.715 0 001.905-1.931v-4.332h1.1v4.141c0 1.39-.278 2.093-1.024 2.532"/><path data-name="Path 604" d="M131.111 39.087l-1.844-2.853h-1.01v2.853h-1.112v-7h2.356c1.683 0 2.6.7 2.6 1.99a1.976 1.976 0 01-1.639 2.063l1.932 2.941zm-.629-5.883c-.234-.176-.322-.19-1.127-.19h-1.1v2.3h1.1c.717 0 .863-.029 1.171-.292a1.1 1.1 0 00.38-.893 1.077 1.077 0 00-.424-.922"/><path data-name="Path 605" d="M139.343 39.088l-.8-1.946h-3l-.79 1.946h-1.116l2.854-7.171h1.1l2.854 7.171zm-2.3-5.986l-1.2 3.132h2.385z"/></g></g></svg>